<svg xmlns="http://www.w3.org/2000/svg" viewBox="0 0 1165.2 1166.95">
  <path fill="#000" d="M534.65 737.43c3.68-2.88 9.26-5.49 17.61-8.27l78.2-27.36c19.44-6.82 34.58-14.78 45.05-23.7 9.14-7.8 13.58-18.33 13.58-32.18v-59.78c0-15.52-5.29-28.33-16.19-39.17-10.89-10.86-23.8-16.14-39.42-16.14h-95.76c-15.62 0-28.53 5.28-39.42 16.14-10.89 10.84-16.16 23.65-16.16 39.17v25.24h44.67l-.21-10.32c-.21-8.87 2.18-15.95 7.14-21.06 4.68-4.8 13.77-7.8 23.73-7.8h58.22c15.78 0 28.55 12.81 28.55 28.6v30.9c-.24 8.44-2.82 14.9-7.69 19.25-3.82 3.4-9.61 6.2-17.78 8.6l-77.92 27.05c-19.6 6.82-34.86 14.81-45.38 23.72-9.21 7.8-13.67 18.3-13.67 32.16v71.88c0 11.6 9.4 21.01 20.98 21.01h165.35c11.58 0 20.98-9.41 20.98-21.01v-20.37H529.14v-44.54c0-4.61 1.9-9.1 5.51-11.96Z"/>
  <path fill="#f00" d="M537.97 510.81h95.29c20.51 0 38.19 7.25 52.55 21.54 1.21 1.21 2.35 2.42 3.44 3.68-2.99-24.72-7.88-45.28-7.95-45.59-10.06-37.18-26.18-80.56-42.08-128.71-25.85-78.28-19.22-165.56-19.22-176.4 0-6.23 1.78-9.27 3.32-10.74 1.31-1.26 1.99-3.02 1.9-4.85l-3.7-63.89c-.5-8.79-7.76-15.64-16.57-15.64h-38.45c-8.78 0-16.04 6.87-16.57 15.64l-3.7 63.89c-.09 1.81.59 3.59 1.9 4.85 1.52 1.47 3.32 4.52 3.32 10.74 0 10.84 6.62 98.12-19.22 176.4-15.9 48.16-32.04 91.54-42.08 128.71-.07.31-4.94 20.73-7.93 45.33 1.04-1.16 2.11-2.31 3.23-3.42 14.34-14.29 32.02-21.54 52.52-21.54Z"/>
</svg>
